<?xml version="1.0" encoding="UTF-8"?>
<svg id="Layer_1" data-name="Layer 1" xmlns="http://www.w3.org/2000/svg" viewBox="0 0 355.86 185.03">
  <defs>
    <style>
      .cls-1 {
        fill: #fefefe;
        opacity: 0;
      }

      .cls-2 {
        fill: #4d0000;
      }

      .cls-3 {
        fill: #0d0d0d;
      }

      .cls-4 {
        fill: #4f0809;
      }
    </style>
  </defs>
  <path class="cls-4" d="M116.14,14.46c4.89,6.46-32.07,37.84-31.68,42.22.49,5.47,33.26,1.35,29.44,10.45-10.03,5.78-100.94,77.87-105.56,73.4-3.57-3.46,45.84-56.12,45.99-59.9.21-5.2-26.86-.81-26.99-7.95-.08-4.15,49.25-62.31,53.29-63.12,1.96-.4,34.43,3.47,35.52,4.91Z"/>
  <g>
    <g>
      <g>
        <polygon class="cls-2" points="268.57 65.09 263.86 79.42 250.99 79.49 246.63 92.74 258.5 92.74 254.15 106.35 241.99 106.43 236.92 121.83 250.95 121.83 246.28 136.19 213.91 136.19 237.82 65.09 268.57 65.09"/>
        <polygon class="cls-2" points="316.33 65.09 311.61 79.42 300.18 79.49 281.44 136.19 263.1 136.19 281.8 79.46 271.01 79.46 275.86 65.09 316.33 65.09"/>
      </g>
      <g>
        <polygon class="cls-2" points="136.26 65.09 124.21 111.78 145.43 65.09 163.95 65.09 151.9 113.93 173.48 65.09 191.28 65.09 159.1 136.19 136.62 136.19 142.91 99.2 125.29 136.19 102.81 136.19 118.27 65.09 136.26 65.09"/>
        <polygon class="cls-2" points="228.5 65.09 223.79 79.42 210.92 79.49 206.56 92.74 218.43 92.74 214.08 106.35 201.92 106.43 196.85 121.83 210.88 121.83 206.2 136.19 173.84 136.19 197.75 65.09 228.5 65.09"/>
      </g>
    </g>
    <g>
      <g>
        <path class="cls-3" d="M209.23,160.25c.38-1.12,2.31-5.82,2.12-6.61-.21-.89-2.01-.64-2.5.05-2.15,5.85-4.46,11.8-6.19,17.78-.37,1.29-1.98,4.72.24,4.59,2.45-.15,3.07-5.62,4.16-7.37l-1.79-.18,1.44-5.03h10.07l-5.75,17.6h-5.39c-.11,0,.23-1.91-.18-2.15-3.38,4.03-11.76,4.19-12.37-2.02-.31-3.12,4.64-17.17,6.16-20.7,2.59-6.01,6.91-9.37,13.78-8.89,8.29.57,7.7,7.16,4.66,12.94h-8.45Z"/>
        <path class="cls-3" d="M267.85,154.15l-7.17,22.04c1.6,1.65,2.17-.16,2.77-1.48,2.87-6.33,4.4-14.02,6.92-20.56h8.27l-9.17,26.93h-8.09l.18-1.79c-2.16,2.59-9.25,3.51-9.56-.91-.11-1.67,1.2-5.14,1.73-6.91,1.72-5.81,3.89-11.7,6.03-17.32h8.09Z"/>
        <path class="cls-3" d="M231.53,154.15l-.9,3.23c1.48-1.92,3.47-3.54,5.93-3.95.33.35-2.55,8.74-2.83,9.12-.35.49-3.64-.19-5.38,2.25-2.76,3.86-3.39,12.03-5.99,16.28h-8.09l9.17-26.93h8.09Z"/>
        <g>
          <path class="cls-3" d="M271.09,185.03l10.61-30.88h8.09l-.18,1.79c1.83-1.96,6.19-3.67,8.43-1.59,1.53,1.41.9,3.03.48,4.75-.86,3.52-5.36,17.38-7.29,19.66-2.57,3.04-7.29,4.1-9.54.18l-2.52,6.1h-8.09Z"/>
          <path class="cls-1" d="M288.24,158.91c.28-.73,1.2-.82,1.91-.81.35.36-.77,3.88-.98,4.58-1.01,3.47-2.93,9.73-4.39,12.85-.76,1.61-2.3,1.73-2.11.07"/>
        </g>
        <g>
          <path class="cls-3" d="M244.75,153.52c5.47-.75,10.3.82,9.35,7.18-.49,3.31-4.84,15.07-7.09,17.34-3.13,3.14-9.47,4.36-13.58,2.76-2.45-.96-2.81-2.82-2.62-5.28.24-2.94,4.55-15.06,6.32-17.39,1.83-2.4,4.58-4.19,7.61-4.61Z"/>
          <path class="cls-1" d="M246.27,158.1c.07.62-.03,1.2-.16,1.81-.72,3.36-3.76,12.53-5.21,15.62-.76,1.62-2.31,1.72-2.11.07.33-2.79,3.52-11.38,4.7-14.37.62-1.54.75-3.37,2.79-3.14Z"/>
        </g>
      </g>
      <g>
        <path class="cls-3" d="M173.26,148.04l-2.15,7.18c2.31-1.52,7.2-3.03,9.16-.35,1.43,1.97-.18,5.67-.8,7.81-1.78,6.18-4.17,12.42-6.39,18.4h-8.09c1.92-6.91,5.52-14.23,7.03-21.17.74-3.41-1.56-1.78-2.53.35-2.9,6.41-4.08,14.45-7.2,20.82h-8.09l10.79-33.04h8.27Z"/>
        <path class="cls-3" d="M157.44,164.2h-7.91c.15-.99,1.98-5.57,1.44-6.1-.11-.11-1.13,0-1.44.17-.84.5-6.52,17.67-5.75,18.5,3.27-.34,2.69-5.15,4.49-7.18h7.37c-2.09,7.03-6.5,12.59-14.56,11.85s-5.18-7.94-3.52-13.2c2.18-6.87,3.89-13.73,12.25-14.7,8.14-.95,10.29,3.47,7.63,10.67Z"/>
        <path class="cls-3" d="M71.84,162.41c.55-1.56,2.45-5.18-.46-4.23-1.04.34-2.17,2.92-1.91,3.88.66,2.43,7.18,3.72,7.43,7.33.32,4.56-2.99,9.91-7.38,11.35-7.6,2.48-15.42-.56-10.45-9.36h7.01c-.26,1.78-1.66,3.52-1.06,5.36,2.51.91,4.08-2.92,3.51-4.75-.41-1.33-5.86-3.53-6.58-5.65-1.11-3.32,1.32-8.92,4.14-10.91,5.75-4.06,19.25-2.52,13.1,6.98h-7.37Z"/>
        <path class="cls-3" d="M135.86,154.15l-.9,3.23c1.48-1.92,3.47-3.54,5.93-3.95.33.35-2.55,8.74-2.83,9.12-.35.49-3.64-.19-5.38,2.25-2.76,3.86-3.39,12.03-5.99,16.28h-8.09l9.17-26.93h8.09Z"/>
        <g>
          <path class="cls-3" d="M12.5,181.08l11.01-33.06c4.26.42,9.83-.66,13.91.46,5.81,1.59.97,16.18-4.78,15.36,1.39,1.23,2.97,1.42,2.9,3.75-1.41,4.5-2.53,9.23-4.52,13.48h-7.73c.98-3.96,3.69-8.92,4.24-12.84.26-1.88-.87-2.81-1.75-1.01-1.98,4.05-2.55,9.83-4.83,13.85h-8.45Z"/>
          <path class="cls-1" d="M31.89,154.19c.42.61-1.64,8.54-4.28,7.14.64-.91,2.21-7.3,2.53-7.53.28-.2,1.34.26,1.75.39Z"/>
        </g>
        <g>
          <path class="cls-3" d="M107.09,181.08l.36-1.8c-3.12,2.94-9.7,3.61-8.96-2.3.22-1.71,2.16-6.93,3.37-8.12,2.66-2.62,9.71-2.87,11.17-5.73.34-.66,1.63-4.66,1.25-5.03-2.92-.32-2.5,4.7-4.13,6.46h-7.73c1.69-4.63,2.74-8.1,7.67-10.12,3.15-1.29,9.66-1.92,11.75,1.32,1.32,2.04.44,3.89-.1,6-1.66,6.49-4.28,13.06-6.55,19.31h-8.09Z"/>
          <path class="cls-1" d="M111.04,168.51c-.57,1.67-1.53,6.62-2.5,7.74-.36.41-.71.61-1.27.52-1.15-.33.54-4.39.94-5.16.64-1.26,1.68-2.29,2.83-3.1Z"/>
        </g>
        <g>
          <path class="cls-3" d="M57.1,169.59c-2.01,7.32-6.62,12.77-14.89,11.81-7.27-.84-5.72-5.92-4.27-11.01,2.24-7.84,4.58-16.66,14.29-16.98,10.08-.33,8.3,7.74,5.25,14.22l-10.39.22c-.21,1.41-2.9,7.86-2.4,8.57.29.41.57.42,1.03.3,1.81-.48,2.51-5.74,3.66-7.13h7.73Z"/>
          <path class="cls-1" d="M52.06,158.1c.33.33-.75,4.53-1.25,5.04-.58.59-1.59.31-2.35.35.93-1.09,1.16-4.2,1.97-5.03.35-.36,1.46-.52,1.63-.35Z"/>
        </g>
        <g>
          <path class="cls-3" d="M98.46,169.59c-2.01,7.32-6.62,12.77-14.89,11.81-7.27-.84-5.72-5.92-4.27-11.01,2.24-7.84,4.58-16.66,14.29-16.98,10.08-.33,8.3,7.74,5.25,14.22l-10.39.22c-.21,1.41-2.9,7.86-2.4,8.57.29.41.57.42,1.03.3,1.81-.48,2.51-5.74,3.66-7.13h7.73Z"/>
          <path class="cls-1" d="M93.42,158.1c.33.33-.75,4.53-1.25,5.04-.58.59-1.59.31-2.35.35.93-1.09,1.16-4.2,1.97-5.03.35-.36,1.46-.52,1.63-.35Z"/>
        </g>
      </g>
    </g>
    <g>
      <path class="cls-2" d="M320.73,142.3c2.55-1.35,5.93-1.65,8.8-1.43,2.46.19,3.56.33,6.11.34,1.67,0,9.88.28,10.62-.17,1.32-.8,1.32-2.98,4.49-3.08,7.46-.25,6.66,12.24-1.88,9.45-1.77-.58-2.52-2.88-2.87-2.96-1.68-.4-7.46-.02-9.65,0-3.02.02-4.27-.12-7.18-.34-.98-.07-4.91.09-5.58.52-1.03.66-.58,6.91-3.85,5.32-2.55-1.24-2.39-11.22-2.62-13.92-.14-1.71-.59-3.69-.71-5.39-.05-.78-.04-9.16-.54-9.16-.62,5.44-1.39,10.89-1.97,16.35-.63,5.86-.83,11.69-1.86,17.53-.31,1.74-.63,6.12-3.54,4.37-1.14-.68-2.25-9.3-3.58-11.05-.89-1.18-3.82-1.88-5.2-3.88-.73-1.06-2.15-5.5-2.37-5.72-.56-.55-.62.13-.75.5-.44,1.18-.24,2.49-.56,3.75-.41,1.59-2.91,6.78-4.64,6.88-2.99.18-1.82-4.05-2.89-5.77l-3.18.4-275.69.16c-1.75,3.73-7.73,3.79-9.24-.11-1.96-5.05,4.09-9.05,7.89-5.82.87.73,1.04,2.45,1.88,2.55h274.45c3.44-.21,6.16-2.48,7.54,2.13,1,0,.74-9.51,5.02-9.37,3.12.1,3.8,6.57,5.42,8.63,2.44,3.09,4,1.03,6.19,6.4.22.54-.22.97.81.79l3.34-33.11c-.05-4.22,4.52-7.54,5.61-1.85.94,4.95.74,10.06,1.13,15.03.31,4,.99,8.01,1.08,12.03Z"/>
      <path class="cls-1" d="M4.85,141.27c1.66-.25,2.49,2.61.93,3.14-2.39.8-3.53-2.75-.93-3.14Z"/>
      <path class="cls-1" d="M352.28,144c-1.37,1.32-3.71-.44-2.76-1.83,1.67-2.42,4.04.59,2.76,1.83Z"/>
    </g>
  </g>
</svg>